#N canvas 862 62 1013 899 12;
#X text 681 120 costanti;
#X text 684 138 m = 10;
#X text 684 159 longCutoff = 50;
#X text 684 179 shortCutoff = 5;
#X text 684 215 a = (m - 1) / (shortCutoff - longCutoff);
#X text 684 235 b = 1 - longCutoff * a;
#X obj 217 463 <;
#X obj 59 443 t f f;
#X obj 59 519 spigot;
#X obj 178 516 spigot;
#X obj 217 491 expr 1 - $f1;
#X obj 178 541 t b;
#X obj 59 368 timer;
#X obj 59 338 t b b;
#X obj 59 412 t f b;
#X obj 59 270 t b f;
#X obj 595 394 - 1;
#X obj 595 612 t f f;
#X msg 43 84 1;
#X msg 76 85 -1;
#X obj 59 126 f;
#X obj 595 294 loadbang;
#X obj 595 319 t b b;
#X obj 59 22 inlet direction;
#X obj 91 798 outlet lastPos;
#X obj 786 339 f \$0;
#X obj 59 167 expr $f1 + lastPos\$0;
#X obj 91 302 v newPos\$0;
#X obj 235 432 v longCutoff\$0;
#X obj 178 566 v newPos\$0;
#X obj 59 600 expr if($f1 < shortCutoff\$0 \, shortCutoff\$0 \, $f1)
;
#X obj 59 660 expr $f1 * (newPos\$0 - lastPos\$0);
#X obj 59 690 expr $f1 + newPos\$0;
#X obj 59 831 v lastPos\$0;
#X obj 595 369 v m\$0;
#X obj 627 636 v a\$0;
#X obj 595 702 v b\$0;
#X obj 59 630 expr ($f1 * a\$0) + b\$0;
#X obj 747 583 v shortCutoff\$0;
#X msg 786 372 \; m\$1 10 \; longCutoff\$1 100 \; shortCutoff\$1 5
\; lastPos\$1 0;
#X obj 595 677 expr 1 - longCutoff\$0 * $f1;
#X obj 595 505 expr $f1 / (shortCutoff\$0 - longCutoff\$0);
#X obj 59 772 t f f;
#X obj 59 715 int;
#X text 340 41 \$1 = range_min \, \$2 = range_max;
#X obj 59 192 max \$1;
#X obj 59 217 min \$2;
#X connect 6 0 8 1;
#X connect 6 0 10 0;
#X connect 7 0 8 0;
#X connect 7 0 9 0;
#X connect 7 1 6 0;
#X connect 8 0 30 0;
#X connect 9 0 11 0;
#X connect 10 0 9 1;
#X connect 11 0 29 0;
#X connect 12 0 14 0;
#X connect 13 0 12 0;
#X connect 13 1 12 1;
#X connect 14 0 7 0;
#X connect 14 1 28 0;
#X connect 15 0 13 0;
#X connect 15 1 27 0;
#X connect 16 0 41 0;
#X connect 17 0 40 0;
#X connect 17 1 35 0;
#X connect 18 0 20 0;
#X connect 19 0 20 0;
#X connect 20 0 26 0;
#X connect 21 0 22 0;
#X connect 22 0 34 0;
#X connect 22 1 25 0;
#X connect 23 0 20 0;
#X connect 25 0 39 0;
#X connect 26 0 45 0;
#X connect 28 0 6 1;
#X connect 29 0 43 0;
#X connect 30 0 37 0;
#X connect 31 0 32 0;
#X connect 32 0 43 0;
#X connect 34 0 16 0;
#X connect 37 0 31 0;
#X connect 40 0 36 0;
#X connect 41 0 17 0;
#X connect 42 0 33 0;
#X connect 42 1 24 0;
#X connect 43 0 42 0;
#X connect 45 0 46 0;
#X connect 46 0 15 0;
