#N canvas 273 111 1554 889 16;
#X obj 1181 257 tabplay~ array1;
#X obj 1217 215 bng 15 250 50 0 empty empty empty 17 7 0 10 -262144
-1 -1;
#X obj 1141 100 soundfiler;
#X msg 1141 68 read -resize ./ghironda.wav array1;
#X obj 201 736 dac~ 1;
#X obj 1157 155 array define array1;
#X obj 202 622 vcf~ 10;
#X floatatom 244 540 5 0 0 0 - - -;
#X obj 244 568 sig~;
#X floatatom 299 599 5 0 0 0 - - -;
#X obj 238 88 loadbang;
#X msg 238 117 \; pd dsp 1;
#X obj 158 454 sigmund~ -npts 1024 -hop 512 -npeak 128 tracks;
#X obj 158 496 clone sing~ 128 1;
#X obj 202 663 *~ 10;
#X obj 610 53 oscparse;
#X obj 610 88 list trim;
#X obj 610 20 netreceive -b -u 47000;
#X obj 166 259 acceleration 60 9000;
#X obj 166 222 route rotary_0 rotary_1 rotary_2;
#X obj 377 288 / 100;
#X obj 271 320 acceleration 0 250;
#X obj 377 259 acceleration 0 200;
#X obj 202 692 *~;
#X msg 378 353 \$1 25;
#X obj 378 382 line~;
#X obj 110 379 adc~ 1;
#X obj 733 629 vcf~ 10;
#X floatatom 775 547 5 0 0 0 - - -;
#X obj 775 575 sig~;
#X floatatom 830 606 5 0 0 0 - - -;
#X obj 689 461 sigmund~ -npts 1024 -hop 512 -npeak 128 tracks;
#X obj 689 503 clone sing~ 128 1;
#X obj 733 670 *~ 10;
#X obj 697 266 acceleration 60 9000;
#X obj 908 295 / 100;
#X obj 802 327 acceleration 0 250;
#X obj 908 266 acceleration 0 200;
#X obj 733 699 *~;
#X msg 909 360 \$1 25;
#X obj 909 389 line~;
#X obj 697 229 route rotary_3 rotary_4 rotary_5;
#X obj 641 386 adc~ 2;
#X obj 732 743 dac~ 2;
#X connect 1 0 0 0;
#X connect 3 0 2 0;
#X connect 6 0 14 0;
#X connect 7 0 8 0;
#X connect 8 0 6 1;
#X connect 9 0 6 2;
#X connect 10 0 11 0;
#X connect 12 0 13 0;
#X connect 13 0 6 0;
#X connect 14 0 23 0;
#X connect 15 0 16 0;
#X connect 16 0 19 0;
#X connect 16 0 41 0;
#X connect 17 0 15 0;
#X connect 18 0 7 0;
#X connect 19 0 18 0;
#X connect 19 1 21 0;
#X connect 19 2 22 0;
#X connect 20 0 24 0;
#X connect 21 0 9 0;
#X connect 21 0 14 1;
#X connect 22 0 20 0;
#X connect 23 0 4 0;
#X connect 24 0 25 0;
#X connect 25 0 23 1;
#X connect 26 0 12 0;
#X connect 27 0 33 0;
#X connect 28 0 29 0;
#X connect 29 0 27 1;
#X connect 30 0 27 2;
#X connect 31 0 32 0;
#X connect 32 0 27 0;
#X connect 33 0 38 0;
#X connect 34 0 28 0;
#X connect 35 0 39 0;
#X connect 36 0 30 0;
#X connect 36 0 33 1;
#X connect 37 0 35 0;
#X connect 38 0 43 0;
#X connect 39 0 40 0;
#X connect 40 0 38 1;
#X connect 41 0 34 0;
#X connect 41 1 36 0;
#X connect 41 2 37 0;
#X connect 42 0 31 0;
