#N canvas 0 61 1920 1019 16;
#X obj 677 61 oscparse;
#X obj 677 96 list trim;
#X obj 690 130 print incoming;
#X obj 677 28 netreceive -b -u 47000;
#X obj 677 169 route rotary_0 rotary_1 rotary_2;
#X msg 888 542 \$1 25;
#X obj 888 571 line~;
#X obj 142 224 adc~ 1;
#X obj 138 853 dac~ 1;
#X obj 674 837 netsend -b -u;
#X msg 905 805 disconnect;
#X obj 674 746 list prepend send;
#X obj 674 779 list trim;
#X obj 894 739 loadbang;
#X msg 894 773 connect 127.0.0.1 48000;
#X text 922 143 VOLUME;
#X obj 674 713 oscformat;
#X msg 719 651 set rotary_0;
#X msg 856 650 set rotary_1;
#X msg 993 650 set rotary_2;
#X obj 675 489 t f b;
#X obj 775 487 t f b;
#X obj 967 518 t f b;
#X obj 941 228 loadbang;
#X msg 941 257 \; pd dsp 1;
#X obj 888 422 acceleration 0 500;
#X obj 888 513 / 1;
#X msg 266 222 60;
#X obj 206 380 mtof;
#X obj 300 377 + 3;
#X obj 378 379 + 7;
#X obj 274 47 loadbang;
#X obj 300 406 mtof;
#X obj 378 408 mtof;
#X msg 344 222 58;
#X msg 425 223 62;
#X obj 274 76 metro 4000;
#X obj 274 105 random 3;
#X obj 274 134 sel 0 1 2;
#X floatatom 218 417 5 0 0 0 - - -;
#X obj 183 705 /~ 3;
#X obj 183 734 *~;
#X obj 302 558 bp~ 261 250;
#X obj 213 590 bp~ 261 250;
#X obj 175 648 bp~ 261 250;
#X obj 782 358 acceleration 250 1000;
#X obj 111 763 *~;
#X obj 677 319 acceleration 0 100;
#X msg 677 348 \$1 25;
#X obj 677 377 line~;
#X obj 183 763 *~;
#X obj 508 350 expr 1 - $f1;
#X msg 509 393 \$1 25;
#X obj 509 422 line~;
#X connect 0 0 1 0;
#X connect 1 0 2 0;
#X connect 1 0 4 0;
#X connect 3 0 0 0;
#X connect 4 0 47 0;
#X connect 4 1 45 0;
#X connect 4 2 25 0;
#X connect 5 0 6 0;
#X connect 6 0 41 1;
#X connect 7 0 42 0;
#X connect 7 0 43 0;
#X connect 7 0 44 0;
#X connect 7 0 46 0;
#X connect 10 0 9 0;
#X connect 11 0 12 0;
#X connect 12 0 9 0;
#X connect 13 0 14 0;
#X connect 14 0 9 0;
#X connect 16 0 11 0;
#X connect 17 0 16 0;
#X connect 18 0 16 0;
#X connect 19 0 16 0;
#X connect 20 0 16 0;
#X connect 20 1 17 0;
#X connect 21 0 16 0;
#X connect 21 1 18 0;
#X connect 22 0 16 0;
#X connect 22 1 19 0;
#X connect 23 0 24 0;
#X connect 25 0 22 0;
#X connect 25 0 26 0;
#X connect 26 0 5 0;
#X connect 27 0 28 0;
#X connect 27 0 29 0;
#X connect 27 0 30 0;
#X connect 28 0 39 0;
#X connect 28 0 44 1;
#X connect 29 0 32 0;
#X connect 30 0 33 0;
#X connect 31 0 36 0;
#X connect 32 0 43 1;
#X connect 33 0 42 1;
#X connect 34 0 28 0;
#X connect 34 0 29 0;
#X connect 34 0 30 0;
#X connect 35 0 28 0;
#X connect 35 0 29 0;
#X connect 35 0 30 0;
#X connect 36 0 37 0;
#X connect 37 0 38 0;
#X connect 38 0 27 0;
#X connect 38 1 34 0;
#X connect 38 2 35 0;
#X connect 40 0 41 0;
#X connect 41 0 50 0;
#X connect 42 0 40 0;
#X connect 43 0 40 0;
#X connect 44 0 40 0;
#X connect 45 0 21 0;
#X connect 45 0 42 2;
#X connect 45 0 43 2;
#X connect 45 0 44 2;
#X connect 46 0 8 0;
#X connect 47 0 48 0;
#X connect 47 0 51 0;
#X connect 48 0 49 0;
#X connect 49 0 50 1;
#X connect 50 0 8 0;
#X connect 51 0 52 0;
#X connect 52 0 53 0;
#X connect 53 0 46 1;
