#N canvas 4 62 1520 883 16;
#X obj 398 56 oscparse;
#X obj 398 91 list trim;
#X obj 411 125 print incoming;
#X obj 398 23 netreceive -b -u 47000;
#X obj 398 164 route rotary_0 rotary_1 rotary_2;
#X obj 609 508 / 100;
#X obj 609 479 acceleration 0 127;
#X msg 609 537 \$1 25;
#X obj 609 566 line~;
#X obj 150 201 adc~ 1;
#X obj 149 636 dac~ 1;
#X obj 150 589 *~;
#X obj 395 832 netsend -b -u;
#X msg 626 800 disconnect;
#X obj 395 741 list prepend send;
#X obj 395 774 list trim;
#X obj 615 734 loadbang;
#X msg 615 768 connect 127.0.0.1 48000;
#X text 643 138 VOLUME;
#X msg 398 354 \$1 25;
#X obj 398 383 line~;
#X obj 398 314 acceleration 60 5000;
#X obj 503 353 acceleration 1 250;
#X obj 395 708 oscformat;
#X msg 440 646 set rotary_0;
#X msg 577 645 set rotary_1;
#X msg 714 645 set rotary_2;
#X obj 1289 498 / 100;
#X obj 1289 469 acceleration 0 127;
#X msg 1289 527 \$1 25;
#X obj 1289 556 line~;
#X msg 1078 344 \$1 25;
#X obj 1078 373 line~;
#X obj 1055 304 acceleration 60 5000;
#X obj 1183 343 acceleration 1 250;
#X msg 1075 663 set rotary_3;
#X msg 1212 662 set rotary_4;
#X msg 1349 662 set rotary_5;
#X obj 1078 154 route rotary_3 rotary_4 rotary_5;
#X obj 910 581 *~;
#X obj 910 193 adc~ 2;
#X obj 909 628 dac~ 2;
#X obj 151 427 vcf~ 1;
#X obj 911 419 vcf~ 1;
#X obj 1018 766 loadbang;
#X msg 1018 795 \; pd dsp 1;
#X obj 396 484 t f b;
#X obj 496 482 t f b;
#X obj 688 513 t f b;
#X obj 1074 485 t f b;
#X obj 1174 483 t f b;
#X obj 1366 514 t f b;
#X connect 0 0 1 0;
#X connect 1 0 2 0;
#X connect 1 0 4 0;
#X connect 1 0 38 0;
#X connect 3 0 0 0;
#X connect 4 0 21 0;
#X connect 4 1 22 0;
#X connect 4 2 6 0;
#X connect 5 0 7 0;
#X connect 6 0 5 0;
#X connect 6 0 48 0;
#X connect 7 0 8 0;
#X connect 8 0 11 1;
#X connect 9 0 42 0;
#X connect 11 0 10 0;
#X connect 13 0 12 0;
#X connect 14 0 15 0;
#X connect 15 0 12 0;
#X connect 16 0 17 0;
#X connect 17 0 12 0;
#X connect 19 0 20 0;
#X connect 20 0 42 1;
#X connect 21 0 19 0;
#X connect 21 0 46 0;
#X connect 22 0 42 2;
#X connect 22 0 47 0;
#X connect 23 0 14 0;
#X connect 24 0 23 0;
#X connect 25 0 23 0;
#X connect 26 0 23 0;
#X connect 27 0 29 0;
#X connect 28 0 27 0;
#X connect 28 0 51 0;
#X connect 29 0 30 0;
#X connect 30 0 39 1;
#X connect 31 0 32 0;
#X connect 32 0 43 1;
#X connect 33 0 31 0;
#X connect 33 0 49 0;
#X connect 34 0 43 2;
#X connect 34 0 50 0;
#X connect 35 0 23 0;
#X connect 36 0 23 0;
#X connect 37 0 23 0;
#X connect 38 0 33 0;
#X connect 38 1 34 0;
#X connect 38 2 28 0;
#X connect 39 0 41 0;
#X connect 40 0 43 0;
#X connect 42 0 11 0;
#X connect 43 0 39 0;
#X connect 44 0 45 0;
#X connect 46 0 23 0;
#X connect 46 1 24 0;
#X connect 47 0 23 0;
#X connect 47 1 25 0;
#X connect 48 0 23 0;
#X connect 48 1 23 0;
#X connect 49 0 23 0;
#X connect 49 1 35 0;
#X connect 50 0 23 0;
#X connect 50 1 36 0;
#X connect 51 0 23 0;
#X connect 51 1 37 0;
