#N canvas 734 267 1064 518 12;
#X obj 71 57 adc~ 1;
#X obj 72 92 delwrite~ delay_0 1000;
#X obj 185 199 delread4~ delay_0;
#X obj 194 163 sig~ 200;
#X obj 333 110 netreceive -b -u 8000;
#X obj 333 135 oscparse;
#X obj 333 160 list trim;
#X obj 333 185 route button_0;
#X obj 333 210 * 1000;
#X obj 333 235 + 5;
#X obj 185 224 *~ 0.95;
#X obj 186 287 dac~;
#X obj 338 281 print button_0;
#X obj 605 140 loadbang;
#X msg 605 165 \; pd dsp 1;
#X connect 0 0 1 0;
#X connect 2 0 10 0;
#X connect 3 0 2 0;
#X connect 4 0 5 0;
#X connect 5 0 6 0;
#X connect 6 0 7 0;
#X connect 7 0 8 0;
#X connect 8 0 9 0;
#X connect 9 0 3 0;
#X connect 9 0 12 0;
#X connect 10 0 1 0;
#X connect 10 0 11 0;
#X connect 13 0 14 0;
