#N canvas 0 58 1920 1022 16;
#X obj 174 28 loadbang;
#X msg 174 74 \; pd dsp 1;
#X obj 165 195 adc~ 1;
#X obj 243 623 dac~ 1;
#X obj 848 42 oscparse;
#X obj 848 77 list trim;
#X obj 1137 889 netsend -b -u;
#X msg 1364 860 disconnect;
#X obj 1137 816 list prepend send;
#X obj 1137 841 list trim;
#X obj 1353 784 loadbang;
#X obj 825 691 oscformat rotary_0;
#X obj 850 731 print incoming;
#X msg 1353 828 connect 127.0.0.1 48000;
#X obj 848 9 netreceive -b -u 47000;
#X obj 844 157 route rotary_0 rotary_1 rotary_2;
#X obj 1055 223 / 100;
#X obj 1012 690 oscformat rotary_1;
#X obj 1200 690 oscformat rotary_2;
#X obj 1055 194 acceleration 0 200;
#X obj 950 461 acceleration 50 5000;
#X obj 247 310 bp~ 261 250;
#X obj 244 573 *~;
#X msg 1055 252 \$1 25;
#X obj 1055 281 line~;
#X obj 245 358 *~ 0.3333;
#X msg 274 180 60;
#X obj 368 215 + 3;
#X obj 430 213 + 7;
#X obj 274 209 mtof;
#X obj 373 309 bp~ 261 250;
#X obj 368 244 mtof;
#X obj 430 242 mtof;
#X obj 498 311 bp~ 261 250;
#X obj 844 194 acceleration 0 100;
#X obj 133 626 dac~ 1;
#X obj 134 576 *~;
#X obj 129 525 *~;
#X obj 243 452 *~;
#X obj 484 396 / 100;
#X obj 113 412 expr 1 - $f1;
#X msg 113 441 \$1 25;
#X obj 113 470 line~;
#X msg 370 436 \$1 25;
#X obj 370 465 line~;
#X obj 1308 602 oscformat rotary_0;
#X obj 1333 642 print incoming;
#X obj 1538 134 / 100;
#X obj 1495 601 oscformat rotary_1;
#X obj 1683 601 oscformat rotary_2;
#X obj 1538 105 acceleration 0 200;
#X obj 1433 372 acceleration 50 5000;
#X msg 1538 163 \$1 25;
#X obj 1538 192 line~;
#X obj 1327 105 acceleration 0 100;
#X obj 1327 68 route rotary_3 rotary_4 rotary_5;
#X obj 419 1074 dac~ 1;
#X obj 423 761 bp~ 261 250;
#X obj 420 1024 *~;
#X obj 421 809 *~ 0.3333;
#X obj 544 666 + 3;
#X obj 606 664 + 7;
#X obj 450 660 mtof;
#X obj 549 760 bp~ 261 250;
#X obj 544 695 mtof;
#X obj 606 693 mtof;
#X obj 674 762 bp~ 261 250;
#X obj 309 1077 dac~ 1;
#X obj 310 1027 *~;
#X obj 305 976 *~;
#X obj 419 903 *~;
#X obj 660 847 / 100;
#X obj 289 863 expr 1 - $f1;
#X msg 289 892 \$1 25;
#X obj 289 921 line~;
#X msg 546 887 \$1 25;
#X obj 546 916 line~;
#X obj 341 646 adc~ 2;
#X msg 450 631 72;
#X connect 0 0 1 0;
#X connect 0 0 26 0;
#X connect 0 0 78 0;
#X connect 2 0 21 0;
#X connect 2 0 30 0;
#X connect 2 0 33 0;
#X connect 2 0 37 0;
#X connect 4 0 5 0;
#X connect 5 0 15 0;
#X connect 5 0 55 0;
#X connect 7 0 6 0;
#X connect 8 0 9 0;
#X connect 9 0 6 0;
#X connect 10 0 13 0;
#X connect 11 0 8 0;
#X connect 11 0 12 0;
#X connect 13 0 6 0;
#X connect 14 0 4 0;
#X connect 15 0 34 0;
#X connect 15 1 20 0;
#X connect 15 2 19 0;
#X connect 16 0 23 0;
#X connect 17 0 8 0;
#X connect 18 0 8 0;
#X connect 19 0 16 0;
#X connect 19 0 18 0;
#X connect 20 0 17 0;
#X connect 21 0 25 0;
#X connect 22 0 3 0;
#X connect 23 0 24 0;
#X connect 24 0 22 1;
#X connect 24 0 36 1;
#X connect 25 0 38 0;
#X connect 26 0 27 0;
#X connect 26 0 28 0;
#X connect 26 0 29 0;
#X connect 27 0 31 0;
#X connect 28 0 32 0;
#X connect 29 0 21 1;
#X connect 30 0 25 0;
#X connect 31 0 30 1;
#X connect 32 0 33 1;
#X connect 33 0 25 0;
#X connect 34 0 11 0;
#X connect 34 0 39 0;
#X connect 36 0 35 0;
#X connect 37 0 36 0;
#X connect 38 0 22 0;
#X connect 39 0 40 0;
#X connect 39 0 43 0;
#X connect 40 0 41 0;
#X connect 41 0 42 0;
#X connect 42 0 37 1;
#X connect 43 0 44 0;
#X connect 44 0 38 1;
#X connect 45 0 46 0;
#X connect 45 0 8 0;
#X connect 47 0 52 0;
#X connect 48 0 8 0;
#X connect 49 0 8 0;
#X connect 50 0 47 0;
#X connect 50 0 49 0;
#X connect 51 0 48 0;
#X connect 52 0 53 0;
#X connect 53 0 68 1;
#X connect 53 0 58 1;
#X connect 54 0 45 0;
#X connect 54 0 71 0;
#X connect 55 0 54 0;
#X connect 55 1 51 0;
#X connect 55 2 50 0;
#X connect 57 0 59 0;
#X connect 58 0 56 0;
#X connect 59 0 70 0;
#X connect 60 0 64 0;
#X connect 61 0 65 0;
#X connect 62 0 57 1;
#X connect 63 0 59 0;
#X connect 64 0 63 1;
#X connect 65 0 66 1;
#X connect 66 0 59 0;
#X connect 68 0 67 0;
#X connect 69 0 68 0;
#X connect 70 0 58 0;
#X connect 71 0 72 0;
#X connect 71 0 75 0;
#X connect 72 0 73 0;
#X connect 73 0 74 0;
#X connect 74 0 69 1;
#X connect 75 0 76 0;
#X connect 76 0 70 1;
#X connect 77 0 57 0;
#X connect 77 0 63 0;
#X connect 77 0 66 0;
#X connect 77 0 69 0;
#X connect 78 0 60 0;
#X connect 78 0 61 0;
#X connect 78 0 62 0;
