#N canvas 332 391 1191 533 12;
#X obj 61 327 dac~ 1;
#X obj 578 306 dac~ 2;
#X obj 61 71 adc~ 1;
#X obj 578 146 adc~ 2;
#X obj 622 18 loadbang;
#X msg 622 43 \; pd dsp 1;
#X obj 160 54 oscparse;
#X obj 160 89 list trim;
#X obj 160 114 route rotary_0 rotary_3;
#X msg 79 241 \$1 25;
#X obj 79 266 line~;
#X obj 61 293 vcf~ 3;
#X msg 597 214 \$1 25;
#X obj 597 239 line~;
#X obj 577 270 vcf~ 3;
#X obj 160 147 acceleration 20 50;
#X obj 435 146 acceleration 30 70;
#X obj 260 479 netsend -b -u;
#X msg 617 422 disconnect;
#X obj 260 406 list prepend send;
#X obj 260 431 list trim;
#X obj 606 346 loadbang;
#X obj 260 306 oscformat rotary_0;
#X obj 399 305 oscformat rotary_3;
#X obj 160 21 netreceive -b -u 48000;
#X msg 606 390 connect 127.0.0.1 47000;
#X obj 258 74 print incoming;
#X obj 285 346 print incoming;
#X connect 2 0 11 0;
#X connect 3 0 14 0;
#X connect 4 0 5 0;
#X connect 6 0 7 0;
#X connect 6 0 26 0;
#X connect 7 0 8 0;
#X connect 8 0 15 0;
#X connect 8 1 16 0;
#X connect 9 0 10 0;
#X connect 10 0 11 1;
#X connect 11 0 0 0;
#X connect 12 0 13 0;
#X connect 13 0 14 1;
#X connect 14 0 1 0;
#X connect 15 0 9 0;
#X connect 15 0 22 0;
#X connect 16 0 12 0;
#X connect 16 0 23 0;
#X connect 18 0 17 0;
#X connect 19 0 20 0;
#X connect 20 0 17 0;
#X connect 21 0 25 0;
#X connect 22 0 19 0;
#X connect 22 0 27 0;
#X connect 23 0 19 0;
#X connect 23 0 27 0;
#X connect 24 0 6 0;
#X connect 25 0 17 0;
