#N canvas 325 143 1272 654 16;
#X obj 79 917 dac~ 1;
#X obj 60 185 adc~ 1;
#X obj 651 330 adc~ 2;
#X obj 1390 29 loadbang;
#X msg 1390 75 \; pd dsp 1;
#X obj 610 53 oscparse;
#X obj 610 88 list trim;
#X obj 614 920 netsend -b -u;
#X msg 841 891 disconnect;
#X obj 614 847 list prepend send;
#X obj 614 872 list trim;
#X obj 830 815 loadbang;
#X obj 302 722 oscformat rotary_0;
#X obj 733 128 print incoming;
#X obj 327 762 print incoming;
#X msg 830 859 connect 127.0.0.1 48000;
#X obj 610 20 netreceive -b -u 47000;
#X obj 736 600 *~;
#X msg 160 841 \$1 25;
#X obj 160 877 line~;
#X obj 79 827 *~;
#X obj 740 227 acceleration 60 9000;
#X obj 740 193 route rotary_3 rotary_4 rotary_5;
#X obj 321 188 route rotary_0 rotary_1 rotary_2;
#X obj 951 228 acceleration 0 127;
#X obj 532 254 / 100;
#X obj 951 257 / 100;
#X msg 813 608 \$1 25;
#X obj 813 642 line~;
#X obj 845 289 acceleration 0 250;
#X obj 489 721 oscformat rotary_1;
#X obj 677 721 oscformat rotary_2;
#X obj 864 720 oscformat rotary_3;
#X obj 1053 720 oscformat rotary_4;
#X obj 1240 719 oscformat rotary_5;
#X obj 736 536 *~;
#X msg 823 486 \$1 25;
#X obj 823 522 line~;
#X obj 736 671 dac~ 2;
#X obj 122 441 delread4~ \$0-d0;
#X obj 78 718 *~ 1;
#X obj 694 482 bp~ 0 3;
#X obj 1388 502 random 8;
#X obj 1388 531 + 1;
#X obj 1398 363 loadbang;
#X obj 1398 392 f 1;
#X obj 1388 473 metro 4000;
#X msg 1388 589 \$1 1000;
#X obj 1388 618 line;
#X obj 532 225 acceleration 0 200;
#X obj 121 345 sig~ 2000;
#X obj 84 404 delwrite~ \$0-d0 4000;
#X obj 99 473 *~ 0.99;
#X obj 322 474 *~ 0.99;
#X obj 307 405 delwrite~ \$0-d1 4000;
#X obj 344 346 sig~ 2450;
#X obj 321 225 acceleration 50 5000;
#X obj 426 286 acceleration 50 5000;
#X obj 345 442 delread4~ \$0-d1;
#X obj 1388 560 * 300;
#X connect 1 0 40 0;
#X connect 1 0 51 0;
#X connect 1 0 54 0;
#X connect 2 0 41 0;
#X connect 3 0 4 0;
#X connect 5 0 6 0;
#X connect 6 0 23 0;
#X connect 6 0 22 0;
#X connect 6 0 13 0;
#X connect 8 0 7 0;
#X connect 9 0 10 0;
#X connect 10 0 7 0;
#X connect 11 0 15 0;
#X connect 12 0 9 0;
#X connect 12 0 14 0;
#X connect 15 0 7 0;
#X connect 16 0 5 0;
#X connect 17 0 38 0;
#X connect 18 0 19 0;
#X connect 19 0 20 1;
#X connect 20 0 0 0;
#X connect 21 0 32 0;
#X connect 22 0 21 0;
#X connect 22 1 29 0;
#X connect 22 2 24 0;
#X connect 23 0 56 0;
#X connect 23 1 57 0;
#X connect 23 2 49 0;
#X connect 24 0 26 0;
#X connect 24 0 34 0;
#X connect 25 0 18 0;
#X connect 26 0 27 0;
#X connect 27 0 28 0;
#X connect 28 0 17 1;
#X connect 29 0 33 0;
#X connect 29 0 36 0;
#X connect 29 0 41 2;
#X connect 30 0 9 0;
#X connect 31 0 9 0;
#X connect 32 0 9 0;
#X connect 33 0 9 0;
#X connect 34 0 9 0;
#X connect 35 0 17 0;
#X connect 36 0 37 0;
#X connect 37 0 35 1;
#X connect 39 0 52 0;
#X connect 40 0 20 0;
#X connect 41 0 35 0;
#X connect 42 0 43 0;
#X connect 43 0 59 0;
#X connect 44 0 45 0;
#X connect 45 0 46 0;
#X connect 46 0 42 0;
#X connect 47 0 48 0;
#X connect 48 0 41 1;
#X connect 49 0 25 0;
#X connect 49 0 31 0;
#X connect 50 0 39 0;
#X connect 52 0 40 0;
#X connect 53 0 40 0;
#X connect 55 0 58 0;
#X connect 56 0 12 0;
#X connect 56 0 50 0;
#X connect 57 0 30 0;
#X connect 57 0 55 0;
#X connect 58 0 53 0;
#X connect 59 0 47 0;
