#N canvas 0 58 1920 1022 16;
#X obj 60 500 dac~ 1;
#X obj 738 560 dac~ 2;
#X obj 60 185 adc~ 1;
#X obj 738 351 adc~ 2;
#X obj 1390 29 loadbang;
#X msg 1390 54 \; pd dsp 1;
#X obj 610 53 oscparse;
#X obj 610 88 list trim;
#X msg 89 321 \$1 25;
#X obj 89 346 line~;
#X obj 60 407 vcf~ 3;
#X msg 764 404 \$1 25;
#X obj 764 438 line~;
#X obj 737 475 vcf~ 3;
#X obj 614 920 netsend -b -u;
#X msg 841 891 disconnect;
#X obj 614 847 list prepend send;
#X obj 614 872 list trim;
#X obj 830 815 loadbang;
#X obj 302 722 oscformat rotary_0;
#X obj 733 128 print incoming;
#X obj 327 762 print incoming;
#X msg 830 859 connect 127.0.0.1 48000;
#X obj 610 20 netreceive -b -u 47000;
#X obj 737 516 *~;
#X msg 128 426 \$1 25;
#X obj 128 462 line~;
#X obj 60 450 *~;
#X obj 321 225 acceleration 60 9000;
#X obj 740 227 acceleration 60 9000;
#X obj 740 193 route rotary_3 rotary_4 rotary_5;
#X obj 321 188 route rotary_0 rotary_1 rotary_2;
#X obj 532 225 acceleration 0 127;
#X obj 951 228 acceleration 0 127;
#X obj 532 254 / 100;
#X obj 951 257 / 100;
#X msg 814 524 \$1 25;
#X obj 814 558 line~;
#X obj 845 289 acceleration 0 250;
#X obj 426 286 acceleration 0 250;
#X obj 489 721 oscformat rotary_1;
#X obj 677 721 oscformat rotary_2;
#X obj 864 720 oscformat rotary_3;
#X obj 1053 720 oscformat rotary_4;
#X obj 1240 719 oscformat rotary_5;
#X connect 2 0 10 0;
#X connect 3 0 13 0;
#X connect 4 0 5 0;
#X connect 6 0 7 0;
#X connect 7 0 31 0;
#X connect 7 0 30 0;
#X connect 7 0 20 0;
#X connect 8 0 9 0;
#X connect 9 0 10 1;
#X connect 10 0 27 0;
#X connect 11 0 12 0;
#X connect 12 0 13 1;
#X connect 13 0 24 0;
#X connect 15 0 14 0;
#X connect 16 0 17 0;
#X connect 17 0 14 0;
#X connect 18 0 22 0;
#X connect 19 0 16 0;
#X connect 19 0 21 0;
#X connect 22 0 14 0;
#X connect 23 0 6 0;
#X connect 24 0 1 0;
#X connect 25 0 26 0;
#X connect 26 0 27 1;
#X connect 27 0 0 0;
#X connect 28 0 8 0;
#X connect 28 0 19 0;
#X connect 29 0 11 0;
#X connect 29 0 42 0;
#X connect 30 0 29 0;
#X connect 30 1 38 0;
#X connect 30 2 33 0;
#X connect 31 0 28 0;
#X connect 31 1 39 0;
#X connect 31 2 32 0;
#X connect 32 0 34 0;
#X connect 32 0 41 0;
#X connect 33 0 35 0;
#X connect 33 0 44 0;
#X connect 34 0 25 0;
#X connect 35 0 36 0;
#X connect 36 0 37 0;
#X connect 37 0 24 1;
#X connect 38 0 13 2;
#X connect 38 0 43 0;
#X connect 39 0 10 2;
#X connect 39 0 40 0;
#X connect 40 0 16 0;
#X connect 41 0 16 0;
#X connect 42 0 16 0;
#X connect 43 0 16 0;
#X connect 44 0 16 0;
