#N canvas 332 391 1191 533 12;
#X obj 61 386 dac~ 1;
#X obj 769 343 dac~ 2;
#X obj 61 71 adc~ 1;
#X obj 769 134 adc~ 2;
#X obj 622 18 loadbang;
#X msg 622 43 \; pd dsp 1;
#X obj 160 54 oscparse;
#X obj 160 89 list trim;
#X obj 160 114 route rotary_0 rotary_3;
#X msg 79 241 \$1 25;
#X obj 79 266 line~;
#X obj 61 293 vcf~ 3;
#X msg 788 202 \$1 25;
#X obj 788 227 line~;
#X obj 768 258 vcf~ 3;
#X obj 260 479 netsend -b -u;
#X msg 617 422 disconnect;
#X obj 260 406 list prepend send;
#X obj 260 431 list trim;
#X obj 606 346 loadbang;
#X obj 260 306 oscformat rotary_0;
#X obj 399 305 oscformat rotary_3;
#X obj 258 74 print incoming;
#X obj 285 346 print incoming;
#X msg 606 390 connect 127.0.0.1 48000;
#X obj 160 21 netreceive -b -u 47000;
#X obj 160 147 acceleration 60 9000;
#X obj 397 256 acceleration 60 9000;
#X obj 416 58 route rotary_1 rotary_4;
#X obj 417 91 acceleration 0 100;
#X obj 574 91 acceleration 0 100;
#X obj 428 183 acceleration 0 127;
#X obj 585 183 acceleration 0 127;
#X obj 428 208 / 100;
#X obj 585 208 / 100;
#X obj 768 283 *~;
#X msg 653 246 \$1 25;
#X obj 653 271 line~;
#X msg 123 311 \$1 25;
#X obj 123 336 line~;
#X obj 61 318 *~;
#X obj 427 150 route rotary_2 rotary_5;
#X connect 2 0 11 0;
#X connect 3 0 14 0;
#X connect 4 0 5 0;
#X connect 6 0 7 0;
#X connect 6 0 22 0;
#X connect 7 0 8 0;
#X connect 7 0 28 0;
#X connect 7 0 41 0;
#X connect 8 0 26 0;
#X connect 8 1 27 0;
#X connect 9 0 10 0;
#X connect 10 0 11 1;
#X connect 11 0 40 0;
#X connect 12 0 13 0;
#X connect 13 0 14 1;
#X connect 14 0 35 0;
#X connect 16 0 15 0;
#X connect 17 0 18 0;
#X connect 18 0 15 0;
#X connect 19 0 24 0;
#X connect 20 0 17 0;
#X connect 20 0 23 0;
#X connect 21 0 17 0;
#X connect 21 0 23 0;
#X connect 24 0 15 0;
#X connect 25 0 6 0;
#X connect 26 0 9 0;
#X connect 26 0 20 0;
#X connect 27 0 12 0;
#X connect 27 0 21 0;
#X connect 28 0 29 0;
#X connect 28 1 30 0;
#X connect 29 0 11 2;
#X connect 30 0 14 2;
#X connect 31 0 33 0;
#X connect 32 0 34 0;
#X connect 33 0 38 0;
#X connect 34 0 36 0;
#X connect 35 0 1 0;
#X connect 36 0 37 0;
#X connect 37 0 35 1;
#X connect 38 0 39 0;
#X connect 39 0 40 1;
#X connect 40 0 0 0;
#X connect 41 0 31 0;
#X connect 41 1 32 0;
