#N canvas 532 112 770 639 12;
#X obj 144 38 netreceive -u -b 10000;
#X obj 144 63 oscparse;
#X obj 144 88 list trim;
#X obj 192 408 *~;
#X obj 258 356 osc~ 220;
#X obj 192 433 *~ 0.5;
#X obj 194 482 dac~;
#X obj 163 268 print;
#X obj 216 206 timer;
#X obj 143 178 t b f b b;
#X obj 163 234 pack 0 0;
#X obj 144 113 route test;
#X obj 143 382 vline~;
#X msg 143 335 1 1 0 \, 0 200 3;
#X connect 0 0 1 0;
#X connect 1 0 2 0;
#X connect 2 0 11 0;
#X connect 3 0 5 0;
#X connect 4 0 3 1;
#X connect 5 0 6 0;
#X connect 5 0 6 1;
#X connect 8 0 10 1;
#X connect 9 0 13 0;
#X connect 9 1 10 0;
#X connect 9 2 8 0;
#X connect 9 3 8 1;
#X connect 10 0 7 0;
#X connect 11 0 9 0;
#X connect 12 0 3 0;
#X connect 13 0 12 0;
