#N canvas 481 578 556 412 12;
#X floatatom 256 136 5 0 0 0 - - -;
#X obj 144 84 netreceive -u -b 10000;
#X obj 144 109 oscparse;
#X obj 144 134 list trim;
#X obj 144 159 t b;
#X msg 152 213 1 \, 0 200;
#X obj 152 238 line~;
#X obj 201 264 *~;
#X obj 253 208 osc~ 220;
#X obj 201 289 *~ 0.5;
#X obj 203 338 dac~;
#X obj 81 292 print;
#X connect 1 0 2 0;
#X connect 2 0 3 0;
#X connect 3 0 4 0;
#X connect 4 0 5 0;
#X connect 4 0 11 0;
#X connect 5 0 6 0;
#X connect 6 0 7 0;
#X connect 7 0 9 0;
#X connect 8 0 7 1;
#X connect 9 0 10 0;
#X connect 9 0 10 1;
