#N canvas 532 112 770 639 12;
#X obj 144 38 netreceive -u -b 10000;
#X obj 144 63 oscparse;
#X obj 144 88 list trim;
#X msg 87 385 1 \, 0 200;
#X obj 87 410 line~;
#X obj 136 436 *~;
#X obj 188 380 osc~ 220;
#X obj 136 461 *~ 0.5;
#X obj 138 510 dac~;
#X obj 167 326 print;
#X obj 219 247 timer;
#X obj 143 178 t b f b b;
#X obj 167 292 pack 0 0;
#X obj 144 113 route test;
#X connect 0 0 1 0;
#X connect 1 0 2 0;
#X connect 2 0 13 0;
#X connect 3 0 4 0;
#X connect 4 0 5 0;
#X connect 5 0 7 0;
#X connect 6 0 5 1;
#X connect 7 0 8 0;
#X connect 7 0 8 1;
#X connect 10 0 12 1;
#X connect 11 0 3 0;
#X connect 11 1 12 0;
#X connect 11 2 10 0;
#X connect 11 3 10 1;
#X connect 12 0 9 0;
#X connect 13 0 11 0;
