#N canvas 939 223 557 655 12;
#X obj 229 24 loadbang;
#X obj 114 175 f;
#X obj 153 176 + 1;
#X obj 114 140 metro 500;
#X obj 114 87 tgl 15 0 empty empty empty 17 7 0 10 -262144 -1 -1 0
1;
#X obj 168 255 timer;
#X obj 114 219 t f b b, f 16;
#X obj 113 296 pack 0 0;
#X obj 126 114 f 1;
#X obj 260 383 netsend -u -b;
#X obj 228 49 t b b;
#X obj 113 394 list prepend send;
#X obj 113 419 list trim;
#X msg 260 183 connect 192.168.1.50 10000;
#X msg 286 305 disconnect;
#X obj 121 547 print;
#X obj 113 337 oscformat test;
#X connect 0 0 10 0;
#X connect 1 0 2 0;
#X connect 1 0 6 0;
#X connect 2 0 1 1;
#X connect 3 0 1 0;
#X connect 4 0 3 0;
#X connect 5 0 7 1;
#X connect 6 0 7 0;
#X connect 6 1 5 0;
#X connect 6 2 5 1;
#X connect 7 0 16 0;
#X connect 8 0 3 0;
#X connect 10 0 8 0;
#X connect 10 1 13 0;
#X connect 11 0 12 0;
#X connect 12 0 9 0;
#X connect 13 0 9 0;
#X connect 14 0 9 0;
#X connect 16 0 11 0;
