#N canvas 1161 587 450 300 12;
#X obj 94 37 inlet~;
#X obj 117 263 outlet~;
#X obj 94 175 tabread4~ \$2;
#X obj 202 175 tabread4~ \$3;
#X obj 94 62 +~ \$1;
#X obj 94 87 wrap~;
#X obj 181 56 array size \$2;
#X obj 94 143 *~;
#X obj 252 88 array size \$3;
#X obj 203 141 *~;
#X obj 118 219 *~;
#X obj 239 17 loadbang;
#X connect 0 0 4 0;
#X connect 2 0 10 0;
#X connect 3 0 10 1;
#X connect 4 0 5 0;
#X connect 5 0 7 0;
#X connect 5 0 9 0;
#X connect 6 0 7 1;
#X connect 7 0 2 0;
#X connect 8 0 9 1;
#X connect 9 0 3 0;
#X connect 10 0 1 0;
#X connect 11 0 6 0;
#X connect 11 0 8 0;
