#N canvas 682 210 1086 725 12;
#X obj 71 58 oscparse;
#X obj 71 33 netreceive -b -u 7000;
#X obj 71 83 list trim;
#X obj 190 478 netsend -b -u;
#X msg 417 420 connect 127.0.0.1 8000;
#X msg 428 452 disconnect;
#X obj 158 360 list prepend send;
#X obj 158 385 list trim;
#X obj 417 376 loadbang;
#X obj 71 269 oscformat rotary_0;
#X obj 221 268 oscformat rotary_1;
#X obj 71 172 +;
#X obj 110 173 f;
#X obj 221 176 +;
#X obj 260 177 f;
#X obj 372 176 +;
#X obj 411 177 f;
#X obj 372 268 oscformat rotary_2;
#X obj 519 173 +;
#X obj 558 174 f;
#X obj 669 177 +;
#X obj 708 178 f;
#X obj 820 177 +;
#X obj 859 178 f;
#X obj 519 270 oscformat rotary_3;
#X obj 669 269 oscformat rotary_4;
#X obj 820 269 oscformat rotary_5;
#X obj 71 109 route rotary_0 rotary_1 rotary_2 rotary_3 rotary_4 rotary_5
, f 122;
#X connect 0 0 2 0;
#X connect 1 0 0 0;
#X connect 2 0 27 0;
#X connect 4 0 3 0;
#X connect 5 0 3 0;
#X connect 6 0 7 0;
#X connect 7 0 3 0;
#X connect 8 0 4 0;
#X connect 9 0 6 0;
#X connect 10 0 6 0;
#X connect 11 0 12 0;
#X connect 11 0 9 0;
#X connect 12 0 11 1;
#X connect 13 0 14 0;
#X connect 13 0 10 0;
#X connect 14 0 13 1;
#X connect 15 0 16 0;
#X connect 15 0 17 0;
#X connect 16 0 15 1;
#X connect 17 0 6 0;
#X connect 18 0 19 0;
#X connect 18 0 24 0;
#X connect 19 0 18 1;
#X connect 20 0 21 0;
#X connect 20 0 25 0;
#X connect 21 0 20 1;
#X connect 22 0 23 0;
#X connect 22 0 26 0;
#X connect 23 0 22 1;
#X connect 24 0 6 0;
#X connect 25 0 6 0;
#X connect 26 0 6 0;
#X connect 27 0 11 0;
#X connect 27 1 13 0;
#X connect 27 2 15 0;
#X connect 27 3 18 0;
#X connect 27 4 20 0;
#X connect 27 5 22 0;
