#N canvas 306 142 1512 758 12;
#X obj 113 43 adc~ 1;
#X obj 112 326 dac~;
#X obj 486 55 loadbang;
#X msg 486 80 \; pd dsp 1;
#X obj 111 298 hip~ 5;
#X obj 214 246 delread4~ \$0-del;
#X obj 162 150 delwrite~ \$0-del 5000;
#X obj 214 217 sig~ 5000;
#X obj 787 68 oscparse;
#X obj 787 43 netreceive -b -u 7000;
#X obj 787 93 list trim;
#X obj 787 182 +;
#X obj 826 183 f;
#X obj 787 118 route rotary_0 rotary_1 rotary_2, f 65;
#X obj 906 582 netsend -b -u;
#X msg 1133 524 connect 127.0.0.1 8000;
#X msg 1144 556 disconnect;
#X obj 787 414 list prepend send;
#X obj 787 439 list trim;
#X obj 1133 480 loadbang;
#X obj 787 373 oscformat rotary_0;
#X obj 937 372 oscformat rotary_1;
#X obj 1088 372 oscformat rotary_2;
#X obj 787 244 t f f;
#X obj 942 183 +;
#X obj 981 184 f;
#X obj 942 245 t f f;
#X obj 1087 186 +;
#X obj 1126 187 f;
#X obj 1087 248 t f f;
#X obj 787 219 clip 0 100;
#X obj 942 220 clip 0 100;
#X obj 1087 223 clip 0 100;
#X obj 502 397 / 100;
#X msg 502 422 \$1 20;
#X obj 502 447 line~;
#X obj 213 276 *~;
#X obj 112 105 *~ 1;
#X obj 639 397 / 100;
#X obj 639 422 * 5000;
#X connect 0 0 37 0;
#X connect 2 0 3 0;
#X connect 4 0 1 0;
#X connect 4 0 1 1;
#X connect 5 0 36 0;
#X connect 7 0 5 0;
#X connect 8 0 10 0;
#X connect 9 0 8 0;
#X connect 10 0 13 0;
#X connect 11 0 12 0;
#X connect 11 0 30 0;
#X connect 12 0 11 1;
#X connect 13 0 11 0;
#X connect 13 1 24 0;
#X connect 13 2 27 0;
#X connect 15 0 14 0;
#X connect 16 0 14 0;
#X connect 17 0 18 0;
#X connect 18 0 14 0;
#X connect 19 0 15 0;
#X connect 20 0 17 0;
#X connect 21 0 17 0;
#X connect 22 0 17 0;
#X connect 23 0 20 0;
#X connect 23 0 33 0;
#X connect 23 1 11 1;
#X connect 24 0 25 0;
#X connect 24 0 31 0;
#X connect 25 0 24 1;
#X connect 26 0 21 0;
#X connect 26 0 38 0;
#X connect 26 1 24 1;
#X connect 27 0 28 0;
#X connect 27 0 32 0;
#X connect 28 0 27 1;
#X connect 29 0 22 0;
#X connect 29 1 27 1;
#X connect 30 0 23 0;
#X connect 31 0 26 0;
#X connect 32 0 29 0;
#X connect 33 0 34 0;
#X connect 34 0 35 0;
#X connect 35 0 36 1;
#X connect 36 0 37 0;
#X connect 37 0 4 0;
#X connect 37 0 6 0;
#X connect 38 0 39 0;
#X connect 39 0 7 0;
